<svg version="1.1" id="Layer_1" xmlns="http://www.w3.org/2000/svg" xmlns:xlink="http://www.w3.org/1999/xlink" x="0px" y="0px"
	 width="100%" viewBox="0 0 512 416" enable-background="new 0 0 512 416" xml:space="preserve">
<path fill="#000000" opacity="1.000000" stroke="none" 
	d="
M1.000000,393.468689 
	C4.419065,394.133087 7.948887,393.713104 11.415629,393.558502 
	C31.865185,392.646759 52.325840,391.874664 72.751297,390.564941 
	C90.335922,389.437378 108.118355,389.735291 125.443733,386.475098 
	C150.040527,381.846649 174.565125,385.442291 199.119217,385.441528 
	C204.583038,385.441376 210.046875,385.441528 215.402466,385.441528 
	C216.600906,383.561157 213.637054,382.424042 215.363708,380.035767 
	C219.835617,387.696259 226.698441,386.478760 233.825302,385.386169 
	C232.761810,381.626648 229.896255,378.945709 229.344299,374.878387 
	C235.161682,376.375000 233.702881,384.540863 239.455765,385.645905 
	C240.755447,383.663086 238.830597,381.904694 240.295578,380.345459 
	C243.238571,379.731689 241.167816,385.706604 244.971954,384.171082 
	C246.067352,382.085632 242.952850,380.680756 244.121399,378.507690 
	C246.864258,378.495453 246.943192,382.053131 249.776505,382.509552 
	C250.058334,379.445190 251.798264,376.447235 249.078003,373.323975 
	C252.324692,373.948700 255.467575,374.041901 256.058441,378.307800 
	C256.438599,381.052643 258.386932,381.151123 260.848572,379.671600 
	C260.022949,377.184753 257.859100,374.892212 258.973663,371.729065 
	C264.516907,371.798492 267.164764,380.309509 273.626984,377.156433 
	C274.460968,375.363739 272.450165,374.591888 272.837738,373.013153 
	C273.205475,372.953857 273.753723,372.682129 274.045990,372.851685 
	C275.036224,373.426147 276.075012,374.026337 276.846771,374.849640 
	C280.951904,379.228729 281.460022,379.220062 285.033478,374.488678 
	C285.393890,374.011505 286.022125,373.736664 286.884064,373.105988 
	C288.351715,377.692719 291.902832,379.251709 295.468170,380.329193 
	C297.447723,379.560913 295.619934,377.512604 297.567200,376.784637 
	C300.231598,382.438660 305.472107,381.585724 310.373993,381.638062 
	C311.773926,381.653015 313.079468,381.368103 313.476776,379.734253 
	C313.886993,378.047211 313.257385,376.804993 311.734589,376.007202 
	C306.070129,373.039642 301.102356,369.112335 294.032288,368.696533 
	C281.929779,367.984711 271.416962,362.400726 261.635529,355.437653 
	C259.204071,353.706757 258.081512,351.734497 258.548309,348.687744 
	C259.201508,344.424377 257.456024,341.236053 253.598526,339.246826 
	C247.490768,342.592438 247.475235,342.604340 243.051315,336.823456 
	C242.103165,335.584503 241.050629,334.727081 239.449722,334.389343 
	C234.647018,333.376099 234.658508,333.321655 231.309814,329.543701 
	C231.109634,326.854797 234.463974,326.753448 235.055161,324.200989 
	C229.291275,318.776245 222.256104,315.036896 214.808456,311.412262 
	C223.602524,309.490326 229.505615,300.532898 239.466812,302.652588 
	C242.125397,303.218323 244.101715,302.020416 245.905121,299.851562 
	C249.732040,295.249176 253.781799,290.815857 257.959717,286.527039 
	C260.874329,283.535034 262.323181,279.856445 263.634705,276.096863 
	C265.404785,271.022736 268.630341,267.791168 273.175476,264.626190 
	C278.528381,260.898682 285.434631,258.808533 288.218384,251.202347 
	C289.987762,246.367706 296.330566,244.225479 299.763184,239.832657 
	C302.398315,236.460342 304.069733,233.178482 304.927216,228.851212 
	C305.962189,223.628555 307.050751,217.735535 313.645050,215.622452 
	C316.704498,214.642090 318.214752,211.484833 320.642456,209.089645 
	C315.939545,203.708344 315.286316,197.304169 315.699127,190.738953 
	C316.462402,178.600555 313.943909,166.501678 315.564972,154.321747 
	C316.058807,150.611557 317.328613,148.167542 320.751740,147.471970 
	C326.435364,146.317017 327.854950,142.061737 328.545837,137.393951 
	C329.088257,133.729645 330.023773,130.290070 331.577301,126.935379 
	C334.496948,120.630745 333.793427,113.325439 337.452423,107.053925 
	C339.653717,103.280922 342.197205,100.813751 346.273773,100.894516 
	C357.042847,101.107864 362.194427,102.459633 364.344360,116.566948 
	C365.288879,122.764938 366.772369,128.942154 366.340515,135.282349 
	C365.976074,140.632629 369.501953,144.194794 372.788849,147.130997 
	C377.257355,151.122742 376.579437,155.777542 376.161682,160.450943 
	C374.825775,175.395187 374.199615,190.152924 378.829346,204.832916 
	C383.584930,219.911926 384.968109,235.718292 387.214844,251.307205 
	C388.234039,258.378906 384.181915,263.791992 378.301788,264.089447 
	C377.127014,262.242950 379.734558,261.761200 379.712921,260.177460 
	C377.305145,260.690979 375.105011,259.739716 372.456573,259.354462 
	C371.599640,268.470978 368.216034,276.826965 365.830261,285.453461 
	C364.674530,289.632385 364.376160,293.795654 364.842834,298.238251 
	C365.773010,307.093262 365.158051,315.616791 359.325928,323.381683 
	C353.975891,330.504730 354.303680,339.770996 352.380981,348.133270 
	C350.561981,356.044861 349.689789,364.170105 348.075348,372.135284 
	C347.590485,374.527405 348.759979,375.880341 349.780212,377.613159 
	C351.776367,376.980042 349.244934,374.699188 351.145020,374.055817 
	C353.163757,374.691803 352.146667,378.018707 354.762482,378.255798 
	C357.289764,375.967560 352.892670,374.673126 354.197388,372.203827 
	C356.806732,372.179718 358.204132,374.364777 359.878510,375.982880 
	C361.337067,377.392456 362.364471,380.193207 365.583099,377.412659 
	C367.076447,378.113495 368.210327,381.100464 371.308624,380.389801 
	C372.328796,378.651672 369.528107,377.658966 370.333557,375.921783 
	C371.429535,375.134033 372.416321,375.842438 372.840271,376.625580 
	C375.615692,381.752045 380.630554,382.955963 385.656860,384.199615 
	C396.624908,386.913391 405.682465,393.316864 414.239594,400.138367 
	C419.820435,404.587250 425.469971,405.285583 431.914551,404.346588 
	C433.068237,404.178497 434.213989,403.934021 435.372864,403.827484 
	C441.709106,403.244720 447.701324,402.787323 452.282349,409.070709 
	C455.103302,412.939941 460.057648,414.630920 464.773376,416.729706 
	C310.333344,417.000000 155.666656,417.000000 1.000000,417.000000 
	C1.000000,409.256927 1.000000,401.597137 1.000000,393.468689 
M373.598633,250.210953 
	C375.841461,250.433167 377.681213,248.811035 377.379852,245.748993 
	C376.776215,239.615952 377.923279,233.097885 373.574646,226.918625 
	C375.366516,234.943863 373.842041,242.264709 373.598633,250.210953 
z"/>
<path fill="#000000" opacity="1.000000" stroke="none" 
	d="
M513.000000,196.562500 
	C508.604248,192.695602 502.911255,190.726822 497.427979,188.399902 
	C493.535553,186.748062 489.608429,185.970352 485.323090,187.233170 
	C478.595276,189.215729 471.497070,185.521057 464.634949,189.158035 
	C463.443390,184.431747 462.393768,180.287231 457.287292,179.832870 
	C453.549805,183.357819 452.717285,188.138489 451.915955,193.561142 
	C448.665710,190.675400 450.010681,187.971588 449.908569,184.527283 
	C446.869171,189.387070 444.302551,193.579727 441.648315,197.716141 
	C436.344360,205.982025 427.040253,207.814514 418.384186,202.276627 
	C421.431122,200.618530 424.282501,202.566483 427.167023,202.734741 
	C432.494995,203.045502 436.100677,201.250290 438.314453,196.297226 
	C440.551575,191.291992 442.864349,186.315750 445.941589,181.719299 
	C447.621643,179.209747 449.081268,176.274506 446.670135,173.438690 
	C444.178436,170.508118 440.900635,168.954102 436.925140,169.505585 
	C435.473694,169.706940 434.190399,170.798019 432.431366,170.358521 
	C431.694427,167.402390 431.825378,163.639191 430.024506,161.509811 
	C424.668274,155.176483 422.272888,147.172485 417.395172,140.692810 
	C413.915955,136.070923 408.863739,133.344223 403.393951,131.483185 
	C401.904694,130.976486 400.128815,130.996979 398.685303,128.707794 
	C409.367889,128.890671 418.802277,130.970306 427.188690,137.003693 
	C436.172791,143.467072 443.226807,151.992188 451.288147,159.440216 
	C453.561035,161.540192 455.920685,163.134857 459.006409,163.244690 
	C461.513794,160.827881 461.800110,157.926086 461.807800,154.843384 
	C461.812439,152.989929 462.254364,150.856583 464.746216,151.118011 
	C467.025726,151.357132 467.346832,153.325333 467.311981,155.304596 
	C467.269470,157.719696 466.027802,159.757248 465.302979,161.954575 
	C463.709351,166.785660 464.507446,168.670593 469.417206,170.171448 
	C475.778870,172.116104 482.131744,174.278198 488.648010,175.484344 
	C498.444458,177.297653 506.333862,181.844467 512.732544,189.800873 
	C513.000000,192.041672 513.000000,194.083328 513.000000,196.562500 
z"/>
<path fill="#000000" opacity="1.000000" stroke="none" 
	d="
M194.284393,163.676392 
	C194.045334,165.553055 196.138290,166.492630 194.986313,168.937561 
	C181.908173,160.991470 168.555542,155.072067 155.788467,169.441086 
	C151.596115,159.259659 143.246078,153.498215 133.029877,152.101471 
	C127.460205,151.339981 123.579338,149.583847 119.594757,146.159073 
	C116.411629,143.423172 113.252846,144.483047 110.435913,148.262131 
	C111.169052,148.696976 111.627274,149.211517 112.015900,149.163422 
	C119.812706,148.198914 121.662140,153.541107 123.588196,159.433548 
	C126.415947,168.084579 132.996475,174.271317 138.965057,180.740784 
	C146.646851,189.067215 155.609024,195.534073 166.708633,198.703751 
	C170.910751,199.903702 175.022888,200.997604 179.440796,199.923782 
	C182.126022,199.271103 184.686768,199.758759 187.103088,201.252441 
	C191.374588,203.892914 196.759949,203.093491 201.601974,205.457916 
	C198.861710,208.189835 195.558304,207.202286 192.830032,208.124191 
	C190.330658,208.968704 187.608322,209.136230 185.076111,209.904739 
	C181.348801,211.035995 177.756989,212.533005 175.315445,207.721664 
	C174.710098,206.528763 173.077942,206.475311 171.745895,206.220886 
	C162.524704,204.459564 153.735352,201.557480 145.634216,196.659973 
	C141.176483,193.965057 137.235641,195.928436 133.955429,199.037857 
	C129.874908,202.905930 125.097717,202.497971 122.316154,197.648087 
	C121.656258,196.497513 121.041214,195.281799 120.656120,194.019623 
	C118.640488,187.413132 114.011650,183.616760 107.428146,182.640869 
	C102.915352,181.971909 102.244781,179.191498 102.150970,175.652924 
	C102.120392,174.499649 102.226418,173.289307 102.551895,172.188416 
	C105.473167,162.307877 99.871170,157.076202 92.088493,152.807617 
	C88.158508,159.068954 89.665123,165.186798 92.307533,171.259750 
	C84.535683,174.706482 76.362625,177.562027 77.121429,188.743225 
	C63.986301,180.040314 53.992519,184.031311 45.341309,195.707413 
	C44.471886,192.110611 46.172115,189.904190 47.143345,187.624313 
	C51.446980,177.521866 46.988609,168.333679 36.141163,165.399216 
	C43.794880,163.405594 46.124245,153.521790 55.167522,153.450104 
	C56.961327,153.435883 58.588268,152.141220 59.832699,150.753342 
	C61.176594,149.254562 62.842457,148.710907 64.750244,148.768005 
	C71.150429,148.959564 75.720604,145.461411 79.952217,141.276520 
	C80.420929,140.812988 81.146217,140.270020 81.165665,139.742264 
	C81.429695,132.574692 86.930939,127.202431 87.694771,120.139763 
	C88.265823,114.859505 89.966263,109.776604 92.241409,104.905266 
	C93.707619,101.765976 95.401024,98.625648 94.852959,94.903236 
	C94.671989,93.674110 95.420280,92.650299 96.204384,91.779358 
	C98.879524,88.807961 101.544563,85.854897 103.453491,82.276726 
	C104.167511,80.938339 105.550186,79.899750 107.207138,80.442245 
	C109.061539,81.049385 109.872780,82.822327 109.267403,84.472305 
	C107.927795,88.123451 109.261078,91.714935 109.077805,95.327888 
	C108.850815,99.802887 109.303009,103.728905 103.498688,105.853493 
	C98.824142,107.564552 98.866478,121.391579 102.951393,124.785301 
	C106.570969,127.792419 110.849892,129.793457 114.434067,133.036331 
	C116.695946,135.082809 121.156532,133.581955 124.644791,133.476288 
	C137.356735,133.091248 149.096771,129.362228 160.276154,123.500656 
	C162.649841,122.256096 164.129532,120.588989 164.970749,118.026024 
	C165.581879,116.164009 165.934418,113.540649 169.432281,114.174271 
	C169.993561,116.729645 167.273102,119.075272 169.127594,122.372299 
	C180.409622,116.991768 193.043472,114.879311 204.132202,108.270363 
	C204.462326,109.326530 204.734238,109.767807 204.624176,109.906982 
	C201.780273,113.503090 200.072083,117.310028 202.534271,121.796593 
	C205.583878,127.353531 208.523743,132.894531 215.559113,134.610855 
	C220.576813,135.834961 225.593277,136.944504 230.697647,137.687378 
	C231.961243,137.871277 233.426270,137.533997 234.193863,138.941879 
	C234.406998,139.953934 233.629440,140.279266 233.073212,140.227234 
	C225.885544,139.554733 219.439621,142.534454 212.702209,144.159256 
	C206.703110,145.605988 195.381851,157.017151 194.284393,163.676392 
M125.374649,183.970169 
	C123.428040,180.754593 121.065483,178.029266 117.227600,176.983475 
	C119.038460,178.980423 121.860504,180.065598 122.023430,183.385910 
	C122.068352,184.301453 123.193932,184.441544 125.374649,183.970169 
z"/>
<path fill="#000000" opacity="1.000000" stroke="none" 
	d="
M302.713806,43.659042 
	C304.113342,41.308395 305.877838,42.848618 307.398376,42.721527 
	C312.947205,42.257751 318.576965,42.739632 321.920410,36.409203 
	C323.514557,33.390789 327.435913,35.200489 329.728882,36.130791 
	C333.408203,37.623569 337.618195,37.473366 340.938507,40.023350 
	C342.348389,41.106129 344.401031,41.044399 345.659912,39.907585 
	C353.504211,32.823681 362.697418,35.203434 371.229462,36.954010 
	C382.008575,39.165619 393.098511,37.445648 403.755341,40.553932 
	C407.275940,41.580784 409.561737,42.570042 409.026215,47.349312 
	C403.562531,42.322487 396.761749,45.477081 390.634766,42.135471 
	C390.729828,47.653114 397.342590,48.094666 396.887543,53.699028 
	C390.461304,48.349705 383.109314,46.915516 375.606506,45.856464 
	C368.635071,44.872410 361.634644,45.529964 354.651550,45.289520 
	C351.889160,45.194408 351.165192,46.690300 352.133057,49.207218 
	C353.211182,52.010841 353.999542,54.859856 352.651672,58.118565 
	C349.883636,56.646061 349.854614,54.157978 349.598267,51.709511 
	C349.183167,47.744705 347.533783,45.795357 342.983063,46.735832 
	C333.873749,48.618404 324.608490,49.758049 315.518188,51.717442 
	C307.485748,53.448818 300.635254,58.044983 293.594299,62.070408 
	C292.735596,62.561348 291.963409,63.442745 291.063293,63.584080 
	C284.176056,64.665520 281.603577,69.519569 279.993011,75.534630 
	C279.329529,78.012543 278.563416,80.714340 275.801544,82.189491 
	C273.595703,80.860756 273.890594,76.981224 270.528107,76.911728 
	C265.507172,83.735657 262.740753,84.048233 258.010468,78.326538 
	C253.355469,83.596443 249.188736,83.482216 245.932938,77.622826 
	C249.324326,76.579643 252.564636,75.270599 256.018799,72.601624 
	C247.988831,70.335258 241.029907,66.688560 234.534531,62.197395 
	C232.335831,60.677143 232.619797,63.897625 231.227783,63.753643 
	C229.388931,56.147945 221.703705,57.872169 217.042236,54.800755 
	C212.015915,51.488949 206.600967,49.998760 200.565216,53.638180 
	C202.263718,50.482040 205.915405,49.055008 205.318375,45.534775 
	C204.794205,42.444145 203.212173,39.697514 201.370331,37.037632 
	C198.793488,33.316288 198.004196,28.348522 192.833694,26.582481 
	C188.564072,25.124142 185.386993,20.865929 179.971893,22.367752 
	C180.627380,19.231503 182.553391,19.692295 184.051575,19.654882 
	C187.381073,19.571735 190.723160,19.825178 194.045517,19.655560 
	C202.696533,19.213892 210.365173,11.431479 210.714478,2.869056 
	C212.108612,2.333432 213.347244,2.688487 214.287842,3.760604 
	C218.813660,8.919096 223.744583,13.689416 228.205078,18.934155 
	C232.612167,24.116110 236.833786,29.100935 239.879745,35.387165 
	C242.288818,40.359047 247.728165,43.403500 252.610687,46.319225 
	C254.045700,47.176178 255.392410,47.904324 256.464325,49.315041 
	C261.463409,55.894264 266.545776,55.205669 272.894562,49.905739 
	C276.189606,47.155060 279.573029,44.944988 280.897095,40.329906 
	C284.424866,42.732792 282.484589,45.767403 283.349304,48.052505 
	C285.933685,47.398155 288.369751,46.028183 289.518311,50.420166 
	C290.237976,53.172142 292.964172,54.659317 295.667175,51.811245 
	C298.058777,49.291283 300.983887,47.227974 302.713806,43.659042 
M249.364883,62.228817 
	C252.843018,62.610416 256.374878,63.470245 259.823151,61.383144 
	C256.084961,57.423729 243.234879,55.647007 239.444916,58.348934 
	C242.211548,60.308327 245.315048,61.348663 249.364883,62.228817 
z"/>
</svg>