<?xml version="1.0" standalone="no"?>
<!DOCTYPE svg PUBLIC "-//W3C//DTD SVG 20010904//EN"
 "http://www.w3.org/TR/2001/REC-SVG-20010904/DTD/svg10.dtd">
<svg version="1.0" xmlns="http://www.w3.org/2000/svg"
 width="131.000000pt" height="105.000000pt" viewBox="0 0 131.000000 105.000000"
 preserveAspectRatio="xMidYMid meet">

<g transform="translate(0.000000,105.000000) scale(0.100000,-0.100000)"
fill="#000000" stroke="none">
<path d="M8 1045 c-9 -10 14 -130 29 -147 30 -33 104 -38 618 -38 514 0 588 5
618 38 15 17 38 137 29 147 -7 7 -1287 7 -1294 0z"/>
<path d="M179 620 c-118 -9 -156 -26 -165 -75 -14 -78 32 -101 236 -116 151
-11 833 4 934 21 70 11 96 32 96 75 0 75 -41 82 -515 95 -395 11 -445 11 -586
0z"/>
<path d="M145 200 c-60 -4 -111 -8 -112 -9 -8 -7 -23 -72 -23 -102 0 -57 26
-70 163 -80 142 -10 1124 -12 1130 -2 2 5 -1 37 -7 72 -14 84 -33 97 -150 111
-115 12 -859 20 -1001 10z"/>
</g>
</svg>
